<svg xmlns="http://www.w3.org/2000/svg" xmlns:xlink="http://www.w3.org/1999/xlink" version="1.1" id="Layer_1" x="0px" y="0px" width="100px" height="100px" viewBox="5.0 -10.0 100.0 135.0" enable-background="new 0 0 100 100" xml:space="preserve">
<path d="M47.541,5.336"/>
<g>
	<path fill="none" d="M80.896,9.229h-60.48c-0.596,0-1.08,0.484-1.08,1.08v80.64c0,0.596,0.484,1.08,1.08,1.08h60.48   c0.595,0,1.08-0.484,1.08-1.08v-80.64C81.976,9.713,81.49,9.229,80.896,9.229z M43.21,37.124c1.232-0.311,3.332-0.682,3.688-1.561   c0.099-0.243,0.158-0.792,0.07-1.206c-0.051-0.244-0.427-0.677-0.638-1.029c-0.418-0.696-0.765-1.399-1.028-2.27   c-0.142-0.471-0.153-0.977-0.319-1.312c-0.114-0.229-0.238-0.404-0.445-0.639c-0.186-0.208-0.413-0.441-0.533-0.709   c-0.174-0.392-0.695-1.379-0.512-1.757c0.085-0.18,0.263-0.417,0.602-0.407c-0.745-4.565,1.897-7.497,5.818-7.767   c4.63-0.319,8.219,2.921,7.199,7.731c0.154,0.105,0.365,0.207,0.461,0.407c0.188,0.391-0.367,1.617-0.514,1.934   c-0.279,0.612-0.624,0.822-0.905,1.135c-0.36,1.697-0.939,3.174-1.844,4.327c0.107,0.559-0.046,1.18,0.107,1.596   c0.171,0.471,1.052,0.836,1.595,0.993c3.741,1.08,9.193,0.696,9.045,6.023c-0.02,0.716,0.046,0.494-0.284,1.05   c-0.159,0.269-0.962,0.628-1.384,0.852c-3.397,1.8-7.641,2.731-12.732,2.731c-5.05,0-9.239-0.905-12.697-2.731   c-0.438-0.23-1.173-0.518-1.382-0.815c-0.34-0.485-0.286-0.302-0.319-1.051C36.059,38.232,39.741,37.997,43.21,37.124z    M72.29,82.81H29.021c-1.193,0-2.16-0.968-2.16-2.16s0.967-2.16,2.16-2.16H72.29c1.192,0,2.159,0.968,2.159,2.16   S73.482,82.81,72.29,82.81z M72.29,71.289H29.021c-1.193,0-2.16-0.967-2.16-2.16c0-1.192,0.967-2.159,2.16-2.159H72.29   c1.192,0,2.159,0.967,2.159,2.159C74.449,70.322,73.482,71.289,72.29,71.289z M72.29,59.77H29.021c-1.193,0-2.16-0.968-2.16-2.16   s0.967-2.16,2.16-2.16H72.29c1.192,0,2.159,0.968,2.159,2.16S73.482,59.77,72.29,59.77z"/>
	<path d="M80.896,5.629h-60.48c-2.581,0-4.68,2.099-4.68,4.68v80.64c0,2.581,2.1,4.681,4.68,4.681h60.48c2.58,0,4.68-2.1,4.68-4.681   v-80.64C85.575,7.728,83.476,5.629,80.896,5.629z M81.976,90.948c0,0.596-0.485,1.08-1.08,1.08h-60.48   c-0.596,0-1.08-0.484-1.08-1.08v-80.64c0-0.596,0.484-1.08,1.08-1.08h60.48c0.595,0,1.08,0.484,1.08,1.08V90.948z"/>
	<path d="M72.29,55.449H29.021c-1.193,0-2.16,0.968-2.16,2.16s0.967,2.16,2.16,2.16H72.29c1.192,0,2.159-0.968,2.159-2.16   S73.482,55.449,72.29,55.449z"/>
	<path d="M72.29,66.97H29.021c-1.193,0-2.16,0.967-2.16,2.159c0,1.193,0.967,2.16,2.16,2.16H72.29c1.192,0,2.159-0.967,2.159-2.16   C74.449,67.937,73.482,66.97,72.29,66.97z"/>
	<path d="M72.29,78.489H29.021c-1.193,0-2.16,0.968-2.16,2.16s0.967,2.16,2.16,2.16H72.29c1.192,0,2.159-0.968,2.159-2.16   S73.482,78.489,72.29,78.489z"/>
	<path d="M37.96,44.516c3.458,1.826,7.647,2.731,12.697,2.731c5.092,0,9.335-0.932,12.732-2.731   c0.422-0.223,1.225-0.583,1.384-0.852c0.33-0.557,0.265-0.334,0.284-1.05c0.148-5.327-5.304-4.943-9.045-6.023   c-0.543-0.157-1.424-0.522-1.595-0.993c-0.153-0.416,0-1.037-0.107-1.596c0.904-1.153,1.483-2.63,1.844-4.327   c0.281-0.313,0.626-0.522,0.905-1.135c0.146-0.316,0.702-1.543,0.514-1.934c-0.096-0.2-0.307-0.301-0.461-0.407   c1.021-4.811-2.568-8.051-7.199-7.731c-3.921,0.27-6.563,3.202-5.818,7.767c-0.339-0.01-0.516,0.227-0.602,0.407   c-0.183,0.378,0.337,1.365,0.512,1.757c0.12,0.268,0.347,0.501,0.533,0.709c0.207,0.234,0.331,0.409,0.445,0.639   c0.166,0.335,0.177,0.841,0.319,1.312c0.263,0.87,0.61,1.573,1.028,2.27c0.211,0.352,0.587,0.785,0.638,1.029   c0.087,0.414,0.028,0.962-0.07,1.206c-0.357,0.879-2.457,1.25-3.688,1.561c-3.469,0.874-7.151,1.109-6.951,5.526   c0.034,0.749-0.021,0.566,0.319,1.051C36.788,43.999,37.523,44.286,37.96,44.516z"/>
</g>
<text x="0.0" y="117.5" font-size="5.0" font-weight="bold" font-family="Helvetica Neue, Helvetica, Arial-Unicode, Arial, Sans-serif" fill="#000000">Created by Wilson Joseph</text><text x="0.0" y="122.5" font-size="5.0" font-weight="bold" font-family="Helvetica Neue, Helvetica, Arial-Unicode, Arial, Sans-serif" fill="#000000">from the Noun Project</text></svg>